<?xml version="1.0" standalone="no"?>
<!DOCTYPE svg PUBLIC "-//W3C//DTD SVG 20010904//EN"
 "http://www.w3.org/TR/2001/REC-SVG-20010904/DTD/svg10.dtd">
<svg version="1.0" xmlns="http://www.w3.org/2000/svg"
 width="512.000000pt" height="512.000000pt" viewBox="0 0 512.000000 512.000000"
 preserveAspectRatio="xMidYMid meet">

<g transform="translate(0.000000,512.000000) scale(0.100000,-0.100000)"
fill="#000000" stroke="none">
<path d="M2165 4800 c-451 -35 -838 -295 -1045 -700 -89 -176 -131 -359 -131
-575 -1 -328 117 -634 333 -861 l68 -71 -76 -6 c-422 -36 -791 -341 -921 -762
l-27 -90 -4 -580 c-2 -319 -1 -594 3 -611 10 -54 60 -118 117 -150 l53 -29
738 -3 c495 -2 750 1 777 8 172 46 174 292 2 340 -24 6 -270 10 -684 10 l-648
0 0 440 c0 505 4 538 75 685 88 182 239 305 460 373 41 12 147 16 585 22 576
8 630 12 803 66 402 127 715 439 841 843 43 137 59 265 53 425 -8 205 -45 352
-132 526 -194 385 -598 665 -1005 695 -41 3 -91 7 -110 9 -19 1 -75 0 -125 -4z
m230 -354 c364 -54 652 -305 761 -661 26 -82 28 -104 28 -255 1 -142 -2 -176
-22 -245 -88 -311 -329 -557 -637 -651 -84 -26 -102 -28 -265 -28 -166 0 -180
1 -260 28 -241 80 -417 218 -538 422 -260 438 -111 1012 330 1271 189 111 391
151 603 119z"/>
<path d="M3495 2494 c-270 -38 -464 -128 -642 -297 -199 -189 -316 -425 -343
-694 -59 -580 353 -1111 930 -1198 121 -19 210 -19 332 0 438 66 792 384 905
813 37 142 43 348 13 491 -90 437 -426 778 -855 866 -79 16 -281 27 -340 19z
m268 -360 c357 -82 598 -379 598 -739 0 -68 -7 -125 -21 -179 -20 -77 -77
-216 -89 -216 -11 0 -1031 1025 -1031 1036 0 21 178 92 270 107 63 11 207 6
273 -9z m237 -1385 c0 -10 -131 -67 -195 -85 -88 -24 -254 -29 -342 -11 -243
52 -444 211 -544 434 -37 80 -69 223 -69 308 0 89 33 231 74 320 l37 79 519
-519 c286 -286 520 -523 520 -526z"/>
</g>
</svg>
