<?xml version="1.0" encoding="iso-8859-1"?>
<!-- Generator: Adobe Illustrator 19.0.0, SVG Export Plug-In . SVG Version: 6.00 Build 0)  -->
<svg version="1.1" id="Layer_1" xmlns="http://www.w3.org/2000/svg" xmlns:xlink="http://www.w3.org/1999/xlink" x="0px" y="0px"
	 viewBox="0 0 474.354 474.354" style="enable-background:new 0 0 474.354 474.354;" xml:space="preserve">
<g>
	<g id="XMLID_56_">
		<g>
			<path style="fill:#F1F1F1;" d="M47.444,92.381V67.416c0-10.985,8.987-19.972,19.972-19.972h339.523
				c10.985,0,19.972,8.987,19.972,19.972v64.909h-69.902h-39.944H157.289h-39.944H47.444V92.381z"/>
			<polygon style="fill:#848484;" points="357.008,322.058 357.008,376.98 317.065,376.98 317.065,322.058 317.065,132.325 
				357.008,132.325 			"/>
			<polygon style="fill:#848484;" points="157.289,322.058 157.289,376.98 117.345,376.98 117.345,322.058 117.345,132.325 
				157.289,132.325 			"/>
			<rect x="157.289" y="322.058" style="fill:#AFAFAF;" width="159.775" height="54.923"/>
			<path style="fill:#AFAFAF;" d="M466.854,332.044v84.881c0,5.492-4.494,9.986-9.986,9.986H17.486
				c-5.492,0-9.986-4.494-9.986-9.986v-84.881c0-5.492,4.494-9.986,9.986-9.986h99.86v54.923h39.944h159.775h39.944v-54.923h99.86
				C462.36,322.058,466.854,326.551,466.854,332.044z"/>
		</g>
		<g>
			<path style="fill:#202020;" d="M456.868,314.558h-92.36V139.825h69.902V67.416c0-15.148-12.324-27.472-27.472-27.472H67.416
				c-15.148,0-27.472,12.324-27.472,27.472v72.409h69.901v174.733H17.486C7.844,314.558,0,322.402,0,332.043v84.881
				c0,9.642,7.844,17.486,17.486,17.486h439.382c9.642,0,17.486-7.844,17.486-17.486v-84.881
				C474.354,322.402,466.51,314.558,456.868,314.558z M324.564,369.48V139.825h24.944V369.48H324.564z M164.789,139.825h144.775
				v174.733H164.789V139.825z M149.789,369.48h-24.944V139.825h24.944V369.48z M164.789,329.558h144.775v39.923H164.789V329.558z
				 M54.944,124.825V99.881h327.029v-15H54.944V67.416c0-6.877,5.595-12.472,12.472-12.472h339.523
				c6.877,0,12.472,5.595,12.472,12.472v57.409H54.944z M459.354,416.924c0,1.348-1.138,2.486-2.486,2.486H17.486
				c-1.348,0-2.486-1.138-2.486-2.486v-84.881c0-1.348,1.138-2.486,2.486-2.486h92.359v39.923h-27.45v15h319.551v-15h-37.437
				v-39.923h92.36c1.348,0,2.486,1.138,2.486,2.486L459.354,416.924L459.354,416.924z"/>
			<rect x="27.472" y="344.516" style="fill:#202020;" width="19.972" height="15"/>
			<rect x="426.91" y="344.516" style="fill:#202020;" width="19.972" height="15"/>
			<rect x="426.91" y="389.453" style="fill:#202020;" width="19.972" height="15"/>
			<rect x="27.472" y="389.453" style="fill:#202020;" width="19.972" height="15"/>
		</g>
	</g>
</g>
<g>
</g>
<g>
</g>
<g>
</g>
<g>
</g>
<g>
</g>
<g>
</g>
<g>
</g>
<g>
</g>
<g>
</g>
<g>
</g>
<g>
</g>
<g>
</g>
<g>
</g>
<g>
</g>
<g>
</g>
</svg>
